<?xml version="1.0" standalone="no"?>
<!DOCTYPE svg PUBLIC "-//W3C//DTD SVG 20010904//EN"
 "http://www.w3.org/TR/2001/REC-SVG-20010904/DTD/svg10.dtd">
<svg version="1.0" xmlns="http://www.w3.org/2000/svg"
 width="194.000000pt" height="169.000000pt" viewBox="0 0 194.000000 169.000000"
 preserveAspectRatio="xMidYMid meet">
<metadata>
Created by potrace 1.10, written by Peter Selinger 2001-2011
</metadata>
<g transform="translate(0.000000,169.000000) scale(0.100000,-0.100000)"
fill="#000000" stroke="none">
<path d="M933 1565 c0 -22 2 -30 4 -17 2 12 2 30 0 40 -3 9 -5 -1 -4 -23z"/>
<path d="M977 1593 c-4 -3 -7 -17 -7 -31 0 -19 4 -23 20 -19 13 3 20 0 20 -10
0 -8 -4 -11 -10 -8 -9 6 -15 -8 -11 -29 1 -5 -3 -21 -8 -35 -7 -17 -8 -37 -2
-56 8 -26 9 -27 10 -7 1 13 5 20 11 17 6 -4 10 -3 9 2 -4 15 13 43 22 37 5 -3
8 0 7 8 -2 7 2 12 7 11 6 -1 12 10 13 24 l2 26 -19 -24 c-10 -13 -23 -34 -30
-46 -6 -13 -17 -23 -23 -23 -6 0 -4 8 6 19 9 10 16 22 14 27 -4 13 22 76 40
97 8 9 11 17 6 17 -5 0 -15 -10 -23 -21 -10 -18 -15 -19 -22 -8 -6 10 -9 10
-9 2 0 -7 -5 -13 -11 -13 -7 0 -9 10 -7 25 6 27 5 29 -5 18z"/>
<path d="M740 1571 c0 -11 4 -22 9 -25 4 -3 6 6 3 19 -5 30 -12 33 -12 6z"/>
<path d="M860 1580 c-8 -5 -10 -10 -5 -10 7 0 7 -3 0 -8 -6 -4 -16 -24 -24
-46 -11 -33 -11 -40 3 -54 15 -15 16 -15 16 0 0 9 -6 18 -12 21 -7 2 -9 8 -5
13 14 15 28 -20 23 -59 -3 -32 -2 -36 10 -26 15 12 11 64 -7 86 -6 6 -8 22 -4
34 6 16 9 18 16 8 4 -7 4 -18 -1 -24 -5 -6 -3 -18 5 -28 11 -16 12 -14 11 15
-1 18 4 43 12 56 8 12 12 25 9 28 -3 3 -8 -4 -12 -15 -8 -27 -29 -28 -22 -1 3
11 4 20 4 20 -1 0 -9 -5 -17 -10z"/>
<path d="M806 1557 c7 -40 -4 -71 -20 -58 -7 6 -16 8 -19 4 -4 -3 -7 2 -7 12
0 10 -3 15 -7 12 -3 -4 -12 1 -20 11 -8 9 -12 13 -10 7 3 -5 8 -27 11 -48 5
-29 3 -38 -6 -34 -7 2 -12 10 -10 16 1 7 -2 10 -7 7 -5 -4 -13 15 -17 41 -4
27 -10 40 -12 31 -4 -21 16 -98 27 -98 4 0 8 -6 8 -12 0 -7 2 -17 4 -23 2 -5
0 -11 -6 -12 -5 -2 -10 0 -11 5 -2 17 -33 76 -34 62 0 -8 12 -40 26 -70 23
-49 44 -133 29 -118 -3 3 -7 17 -9 31 -1 15 -12 34 -24 44 -19 15 -28 38 -31
76 -1 5 -5 5 -11 2 -5 -3 -10 3 -10 14 0 12 -6 21 -12 21 -10 0 -9 3 1 9 8 5
9 11 3 15 -5 3 -13 -1 -16 -10 -3 -8 -10 -13 -15 -10 -5 4 -8 -2 -6 -11 1 -10
-2 -26 -7 -36 -7 -14 -2 -24 23 -48 17 -16 34 -27 37 -25 2 3 -8 15 -22 28
l-27 23 22 13 c20 13 21 12 16 -8 -3 -13 0 -23 9 -27 8 -3 14 -15 13 -27 -1
-11 3 -32 8 -46 6 -14 8 -31 6 -37 -3 -7 1 -13 8 -13 7 0 9 -3 6 -7 -4 -3 -16
2 -27 12 -16 15 -18 21 -8 34 10 13 10 14 -1 4 -15 -12 -61 2 -61 19 0 5 4 7
9 4 5 -3 15 2 22 12 13 15 12 16 -3 3 -10 -7 -18 -10 -18 -5 0 4 -5 3 -12 -4
-9 -9 -9 -15 0 -24 21 -21 13 -32 -10 -12 l-22 19 22 -35 c14 -25 18 -40 12
-50 -7 -11 -10 -11 -11 -2 -2 17 -4 23 -19 57 -7 17 -12 34 -11 38 1 5 -3 6
-8 2 -6 -3 -23 2 -38 11 -27 16 -27 15 3 -12 34 -32 59 -72 50 -82 -4 -3 -21
8 -39 24 l-32 29 28 -31 c16 -18 24 -34 19 -38 -9 -5 -21 6 -70 69 -5 6 -7 17
-4 25 3 13 2 13 -8 0 -10 -12 -11 -11 -7 8 3 12 1 20 -4 16 -14 -8 -11 -30 8
-45 9 -8 22 -29 30 -46 7 -18 18 -32 24 -30 6 1 14 -4 17 -12 3 -10 0 -12 -11
-8 -9 3 -20 0 -26 -7 -8 -9 -2 -15 24 -25 19 -7 35 -17 35 -22 0 -5 -18 0 -40
11 -22 11 -40 18 -40 15 0 -6 77 -45 90 -45 6 0 8 5 4 12 -5 8 -2 9 10 5 10
-4 15 -3 11 3 -3 6 1 10 10 10 33 0 11 -33 -24 -36 -19 -3 -37 -7 -40 -10 -3
-4 7 -4 22 -2 18 4 34 0 45 -11 15 -15 15 -15 9 1 -3 10 -2 20 3 23 6 4 10 -1
10 -9 0 -8 9 -17 19 -21 11 -3 22 -12 25 -20 7 -19 -8 -19 -24 0 -13 16 -35
21 -26 6 3 -4 -6 -6 -19 -3 -14 2 -22 8 -19 13 3 5 -2 6 -10 3 -9 -3 -16 -10
-16 -15 0 -10 68 -24 77 -15 3 3 12 1 20 -5 10 -9 17 -8 28 1 13 11 13 15 3
21 -10 7 -8 9 5 9 10 0 16 3 14 8 -3 4 7 8 21 8 15 1 21 -1 14 -3 -10 -4 -9
-10 3 -30 9 -14 14 -27 11 -31 -3 -3 -6 1 -6 8 0 7 -3 10 -7 7 -3 -4 2 -16 11
-26 10 -11 18 -25 20 -33 1 -7 5 -19 10 -26 4 -7 5 -16 2 -19 -3 -3 -25 16
-49 42 -42 45 -47 47 -103 50 -32 2 -48 1 -34 -2 14 -3 30 -9 37 -15 7 -5 17
-7 23 -3 5 3 10 1 10 -4 0 -6 -4 -11 -10 -11 -5 0 -7 -7 -3 -16 5 -13 8 -11
17 10 l11 27 34 -35 35 -36 -32 0 c-18 0 -49 7 -70 16 -45 19 -86 27 -131 26
-18 0 -44 6 -58 15 -13 9 -26 13 -30 10 -3 -4 6 -11 21 -16 30 -12 36 -25 6
-16 -11 3 -20 3 -20 -2 0 -4 -23 -6 -51 -4 -30 2 -47 6 -39 11 7 4 31 5 53 2
26 -3 38 -1 34 5 -4 6 -25 9 -47 8 -28 -2 -44 3 -51 14 -8 12 -8 10 -3 -9 6
-23 6 -24 -11 -10 -17 14 -17 14 -4 -7 12 -21 28 -28 52 -24 4 0 7 -3 7 -9 0
-5 5 -10 11 -10 5 0 8 4 5 9 -3 4 17 4 45 -1 28 -5 54 -7 57 -4 3 3 -6 6 -19
7 -22 0 -22 1 -4 8 11 5 25 4 32 -1 7 -5 17 -7 24 -3 8 6 7 10 -2 17 -10 7 -9
8 6 4 11 -3 40 -10 65 -16 27 -7 54 -22 67 -38 18 -21 23 -23 23 -9 0 13 8 17
38 17 32 0 41 -5 57 -32 13 -22 15 -33 7 -36 -19 -6 -14 -19 10 -25 12 -4 19
-9 16 -13 -4 -3 -22 3 -41 15 -19 11 -42 21 -51 21 -9 0 -16 7 -16 16 0 8 -4
13 -9 9 -5 -3 -12 -1 -16 5 -3 5 -11 10 -17 10 -6 0 -5 -7 3 -17 13 -15 12
-15 -8 -4 -13 6 -23 9 -23 6 0 -4 -11 2 -25 13 -25 20 -45 21 -92 7 -15 -5
-23 -3 -23 4 0 7 4 10 8 7 5 -3 9 1 9 9 0 10 -6 11 -23 5 -23 -9 -53 -7 -77 5
-6 4 -3 -1 7 -9 11 -9 30 -16 44 -16 13 0 21 -4 18 -8 -2 -4 5 -9 16 -9 29 -3
43 -19 23 -27 -9 -3 -13 -2 -10 4 3 6 1 10 -4 10 -6 0 -11 -5 -11 -12 0 -7 -6
-6 -17 4 -29 24 -85 42 -119 39 -22 -2 -39 4 -53 18 -12 12 -21 17 -21 13 0
-20 39 -42 72 -42 38 0 102 -23 113 -40 4 -7 -2 -7 -19 0 -17 6 -27 6 -32 -2
-4 -6 -3 -8 4 -4 6 3 13 2 17 -4 10 -17 68 -11 95 10 14 11 31 20 38 20 6 0
12 5 12 10 0 6 5 10 10 10 7 0 7 -6 0 -20 -10 -19 -8 -20 27 -15 45 6 26 -9
-24 -20 -24 -5 -33 -3 -33 7 0 10 -3 9 -10 -2 -5 -8 -17 -15 -27 -16 -10 -1
-37 -4 -59 -8 -37 -7 -44 -5 -63 20 -11 14 -18 30 -15 35 3 5 0 9 -7 9 -6 0
-9 -8 -6 -19 4 -16 -1 -19 -29 -19 -19 0 -32 4 -29 9 6 9 -52 79 -65 79 -4 0
7 -17 26 -37 33 -36 39 -53 12 -37 -21 13 -35 13 -35 -2 0 -7 4 -11 9 -8 12 8
48 -6 48 -18 0 -6 -15 -8 -35 -6 l-35 4 20 -21 c11 -12 17 -25 13 -29 -5 -4
-3 -7 2 -5 22 5 94 -14 89 -23 -4 -6 2 -5 13 1 11 6 23 7 27 4 3 -3 6 -1 6 7
0 10 3 10 14 1 10 -8 16 -9 21 -2 4 7 12 7 25 -1 17 -11 15 -14 -27 -30 -26
-10 -50 -14 -53 -10 -8 12 -57 9 -57 -4 0 -6 8 -9 18 -7 9 3 26 0 38 -6 14 -8
21 -8 21 -1 0 5 3 9 8 8 4 -1 17 3 28 10 17 9 24 9 33 -2 8 -10 6 -17 -8 -30
-12 -11 -21 -13 -25 -7 -4 5 2 14 11 20 15 8 15 10 2 11 -8 0 -20 -5 -25 -10
-6 -6 -19 -12 -30 -14 -10 -3 -27 -7 -36 -11 -11 -4 -18 -3 -18 4 0 6 -4 11
-10 11 -5 0 -10 -4 -10 -9 0 -16 33 -22 66 -11 40 14 54 7 47 -21 -3 -11 -9
-17 -12 -12 -8 11 -63 14 -56 2 4 -5 15 -9 25 -9 27 0 51 -11 44 -21 -3 -5 2
-6 10 -3 9 3 16 11 16 16 0 6 10 8 23 6 13 -2 28 0 35 6 26 25 40 35 45 30 2
-2 10 2 17 11 18 21 6 19 -46 -10 -25 -14 -49 -23 -54 -20 -5 3 -11 1 -15 -5
-3 -5 -11 -10 -17 -10 -7 0 -6 6 2 15 7 8 9 15 5 15 -4 0 -2 7 5 15 15 18 54
20 47 3 -2 -7 -10 -12 -16 -10 -7 1 -10 -2 -6 -8 4 -7 18 -2 38 12 45 30 45
31 15 26 -15 -3 -32 -1 -39 3 -19 12 36 23 56 11 18 -9 65 -4 65 7 0 4 -14 5
-31 3 -22 -3 -30 -1 -25 7 4 7 2 9 -8 5 -8 -3 -21 -2 -27 2 -17 10 23 25 85
31 34 3 46 2 41 -6 -3 -6 -3 -11 2 -10 4 1 16 -1 25 -5 9 -4 27 -6 40 -3 18 3
16 5 -9 6 -17 0 -35 6 -38 12 -9 14 66 0 82 -16 23 -24 -65 -26 -110 -4 -21
11 -42 18 -45 15 -3 -4 8 -12 26 -18 l31 -12 -37 -18 c-20 -9 -31 -17 -24 -18
10 0 9 -4 -2 -16 -9 -8 -13 -20 -10 -26 5 -7 2 -8 -6 -3 -8 5 -20 -2 -34 -19
-24 -31 -87 -49 -122 -35 -15 5 -34 5 -49 -1 -35 -13 -31 -17 18 -15 49 2 65
-4 46 -17 -10 -6 -7 -7 8 -3 18 5 22 3 17 -9 -3 -9 -10 -14 -14 -11 -5 3 -19
1 -32 -4 -23 -10 -23 -10 4 -10 15 -1 39 4 55 10 l28 11 -24 19 c-35 29 -5 24
48 -9 3 -1 -6 -14 -20 -28 -23 -26 -23 -26 -1 -13 24 15 23 14 27 45 2 17 -2
20 -19 17 -19 -5 -18 -3 4 13 14 10 28 18 32 17 4 -2 24 17 44 42 21 24 41 42
46 39 4 -3 5 3 1 12 -7 18 -12 18 107 -2 25 -4 48 -12 52 -18 4 -6 8 -68 8
-138 0 -79 4 -128 10 -128 6 0 10 9 10 20 0 11 7 20 15 20 12 0 14 19 12 112
l-2 112 37 7 c34 5 48 -3 48 -26 0 -5 -29 1 -51 10 -10 3 -20 2 -24 -4 -3 -7
0 -8 9 -5 9 3 16 1 16 -6 0 -6 5 -8 10 -5 6 3 10 -1 10 -9 0 -8 5 -18 11 -22
8 -4 9 0 4 15 -5 16 -3 20 9 15 11 -4 16 -1 16 10 0 9 7 16 15 16 18 0 19 -12
3 -29 -11 -10 -9 -11 6 -5 13 5 23 2 31 -9 15 -20 8 -67 -11 -74 -8 -3 -11 -9
-8 -14 11 -18 23 -8 30 26 6 31 8 34 28 24 15 -8 11 -2 -11 21 -18 17 -35 41
-39 52 -4 14 -12 19 -29 15 -36 -6 -39 19 -4 33 26 11 32 10 65 -20 52 -45 85
-86 76 -94 -4 -4 5 -5 19 -1 16 4 30 2 33 -4 4 -6 12 -11 19 -11 16 0 -26 29
-43 30 -8 0 -21 9 -27 19 -23 36 12 42 71 11 22 -10 43 -17 48 -14 5 3 16 0
25 -8 14 -11 16 -11 8 1 -6 11 -4 13 9 8 9 -4 15 -3 12 2 -6 9 -57 22 -93 23
-38 0 -26 18 13 18 23 0 33 -4 28 -11 -4 -6 1 -9 12 -8 11 2 33 -2 51 -10 22
-9 37 -10 50 -3 15 9 13 11 -15 10 -18 -1 -38 4 -44 10 -7 7 -19 12 -27 12 -8
0 -26 10 -40 23 -16 13 -20 15 -11 4 12 -17 11 -18 -16 -11 -44 10 -65 24 -58
36 4 6 3 8 -4 5 -12 -8 -42 1 -42 13 0 4 22 10 48 12 34 2 49 -1 49 -9 0 -7
-9 -13 -19 -13 -10 0 -18 -4 -18 -10 0 -13 3 -13 34 2 21 9 29 8 44 -5 10 -10
22 -14 25 -10 4 3 7 1 7 -6 0 -7 4 -10 9 -6 5 3 17 -2 25 -11 13 -13 22 -13
44 -5 17 7 19 10 6 7 -12 -2 -28 0 -35 5 -10 6 -6 9 13 9 15 0 29 4 32 9 6 9
-29 7 -54 -3 -9 -4 -34 6 -58 21 -34 23 -39 29 -25 34 11 4 19 1 21 -7 4 -16
30 -26 44 -17 7 3 8 1 4 -5 -8 -14 3 -15 22 -3 11 7 10 10 -3 15 -9 3 -25 6
-35 6 -26 0 -33 27 -9 33 20 5 66 -9 124 -39 23 -12 26 -12 13 -1 -10 8 -15
16 -13 19 3 3 -14 9 -37 13 l-43 8 36 7 c33 6 109 45 109 56 0 3 -12 -1 -27
-9 -65 -34 -140 -56 -129 -38 4 5 20 13 37 16 18 4 27 10 21 14 -13 8 1 34 14
29 5 -1 10 8 11 22 1 14 0 18 -3 8 -3 -10 -12 -18 -21 -18 -13 0 -13 2 -2 17
12 15 11 14 -13 -1 -36 -23 -60 -10 -27 15 13 10 19 19 13 19 -6 0 -29 -16
-50 -36 -22 -20 -31 -34 -22 -31 9 3 22 -1 29 -9 7 -9 21 -13 33 -10 19 5 18
3 -4 -14 -25 -20 -71 -19 -78 1 -2 5 -8 9 -13 9 -6 0 -8 -4 -4 -9 3 -5 1 -12
-5 -16 -9 -6 -14 7 -11 28 1 10 -21 9 -39 -3 -12 -8 -11 -10 6 -10 12 0 25 -7
28 -16 4 -11 10 -13 19 -6 7 5 21 6 32 1 17 -6 17 -8 3 -8 -10 -1 -18 -5 -18
-11 0 -5 -13 -7 -30 -5 -16 2 -32 -1 -35 -6 -8 -12 -45 -12 -45 1 0 9 15 14
33 11 5 -1 6 3 2 9 -7 12 6 13 21 3 5 -5 -2 2 -15 14 -19 17 -29 20 -44 11
-13 -7 -22 -7 -30 1 -12 12 36 27 54 15 8 -4 9 -3 5 4 -4 8 -2 10 8 6 8 -3 19
2 25 13 12 24 111 73 145 73 14 0 28 4 31 10 3 5 26 18 50 29 25 11 45 23 45
26 0 3 -9 1 -20 -5 -22 -12 -27 -1 -8 18 9 9 9 12 0 12 -6 0 -14 -11 -18 -25
-6 -24 -23 -32 -37 -18 -4 3 3 22 15 42 21 33 19 32 -25 -13 -26 -27 -45 -51
-42 -54 3 -3 13 3 24 12 10 10 22 13 25 8 7 -12 -39 -36 -53 -28 -6 4 -22 -1
-36 -10 -14 -9 -28 -14 -32 -11 -8 9 17 37 33 37 8 0 14 5 14 10 0 7 -8 6 -22
-2 -13 -7 -27 -11 -32 -10 -4 2 -24 3 -45 3 -20 1 -45 3 -55 6 -19 5 -19 6 0
16 10 6 35 10 54 8 30 -3 33 -1 21 13 -7 9 -19 16 -25 16 -6 0 -4 -5 4 -10 8
-5 11 -10 5 -10 -5 0 -16 4 -24 9 -9 6 -25 1 -49 -15 -19 -13 -41 -24 -48 -24
-8 0 -14 -4 -14 -10 0 -13 6 -13 32 1 14 7 23 8 31 0 13 -13 -33 -25 -62 -16
-11 3 -29 1 -41 -5 -24 -13 -25 -2 -2 25 15 18 30 23 80 27 6 1 12 5 12 10 0
4 7 8 16 8 9 0 12 5 8 12 -5 8 0 9 15 5 15 -4 29 1 42 14 20 20 34 26 24 9 -4
-6 18 4 47 21 29 17 58 32 65 33 7 1 15 5 18 9 3 4 2 5 -2 2 -3 -3 -12 0 -20
6 -10 9 -17 8 -30 -2 -9 -8 -17 -12 -17 -9 -1 2 -11 -2 -23 -11 -13 -9 -21
-18 -18 -21 3 -2 -1 -5 -8 -5 -25 0 -14 27 22 59 20 18 36 39 36 47 0 9 4 21
8 28 4 6 2 15 -4 19 -8 4 -9 3 -5 -4 4 -7 2 -12 -4 -12 -7 0 -10 -7 -7 -14 4
-10 1 -13 -8 -9 -8 3 -12 10 -8 17 4 8 2 8 -7 -1 -13 -12 -5 -37 10 -28 5 3
12 0 16 -7 4 -7 4 -10 -1 -6 -4 4 -15 3 -22 -4 -11 -9 -17 -9 -24 3 -8 14 -3
49 10 59 3 3 17 18 31 34 24 28 24 28 3 17 -13 -6 -23 -16 -23 -22 0 -6 -5 -7
-12 -3 -6 4 -8 3 -5 -3 10 -16 -41 -45 -83 -47 -21 0 -36 -5 -33 -9 7 -12 -17
-37 -38 -37 -16 0 -36 -33 -31 -52 1 -4 -6 -5 -16 -2 -9 3 -6 -2 8 -10 19 -11
21 -15 8 -16 -9 0 -20 5 -23 10 -4 6 -10 8 -15 5 -13 -8 -41 6 -34 17 4 6 10
5 15 -3 6 -10 12 -9 28 6 25 22 19 34 -6 14 -15 -12 -16 -12 -10 4 6 15 1 14
-24 -7 -17 -14 -34 -26 -39 -26 -4 0 -10 -7 -14 -15 -3 -9 0 -15 10 -15 9 0
12 5 8 12 -4 7 -3 8 4 4 7 -4 12 -2 12 5 0 8 5 7 17 -2 9 -8 26 -13 37 -11 18
2 19 1 6 -8 -12 -9 -10 -10 10 -5 14 4 29 11 35 16 14 14 25 11 19 -6 -4 -8
-14 -15 -23 -16 -10 0 -12 -2 -3 -6 8 -3 4 -11 -13 -25 -14 -11 -32 -17 -40
-15 -7 3 -15 2 -17 -3 -2 -5 -16 -11 -33 -14 -28 -5 -29 -4 -11 9 11 8 24 15
29 15 4 0 5 5 2 10 -3 6 1 13 9 16 9 3 13 10 10 16 -4 5 -11 5 -18 -1 -7 -6
-15 -9 -17 -7 -2 2 -11 -3 -19 -12 -13 -14 -12 -15 5 -8 23 8 22 7 -29 -33
-49 -39 -73 -40 -27 -1 28 24 30 28 11 23 -20 -5 -21 -4 -11 15 8 14 17 19 29
15 15 -6 15 -4 4 9 -11 14 -11 22 3 48 9 18 14 38 11 46 -3 8 -1 24 5 36 9 21
9 21 4 -4 -7 -34 4 -35 39 -3 22 20 26 21 26 7 0 -9 -14 -23 -31 -31 -16 -7
-28 -15 -26 -18 3 -2 19 3 36 11 34 18 45 20 36 7 -3 -5 12 -3 33 6 40 15 49
35 29 63 -9 12 -8 13 2 3 7 -6 20 -9 27 -6 8 3 20 0 28 -6 7 -6 16 -7 20 -3 4
4 11 7 14 8 20 2 41 17 36 26 -3 5 -11 4 -20 -3 -12 -10 -12 -6 1 23 l14 35
-27 -5 c-19 -4 -22 -7 -9 -10 9 -2 17 -8 17 -13 0 -6 -4 -7 -10 -4 -9 5 -15
-15 -11 -37 0 -5 -6 -8 -14 -8 -17 0 -20 16 -5 25 6 3 10 11 10 18 0 6 -7 1
-16 -11 -15 -22 -17 -22 -31 -5 -8 10 -12 13 -9 7 3 -7 -5 -15 -19 -18 -14 -4
-23 -11 -20 -16 3 -6 3 -10 -2 -10 -4 0 -19 -3 -33 -7 -24 -6 -24 -6 -7 14 9
11 14 23 10 28 -5 4 -3 5 4 1 19 -10 126 62 119 81 -4 10 -2 13 8 10 10 -4 13
-1 9 9 -3 8 3 24 13 36 19 21 19 21 -2 10 -12 -6 -24 -18 -28 -27 -5 -14 -82
-54 -113 -59 -7 -1 -16 -6 -20 -11 -4 -4 -2 -5 5 -1 14 8 17 -10 2 -19 -5 -3
-10 -2 -10 4 0 5 -9 8 -20 6 -21 -4 -27 9 -10 20 6 3 10 1 10 -6 0 -7 6 -4 14
6 8 11 12 23 10 26 -2 4 3 9 11 13 10 3 15 -1 15 -11 0 -12 9 -7 31 17 28 33
30 33 25 10 l-5 -25 19 25 c13 17 15 27 7 32 -8 5 -6 9 6 14 9 3 17 11 17 17
0 6 -10 1 -22 -10 -13 -11 -35 -28 -49 -37 -23 -14 -27 -15 -32 -2 -4 9 0 13
11 12 18 -3 59 41 48 51 -3 4 -6 0 -6 -8 0 -12 -2 -11 -11 1 -9 12 -10 12 -5
-4 5 -13 2 -17 -9 -12 -9 3 -15 0 -15 -10 0 -8 -4 -13 -10 -9 -5 3 -19 -13
-30 -35 -11 -22 -25 -38 -30 -35 -6 4 -10 -1 -10 -10 0 -11 -5 -15 -15 -11 -8
3 -15 1 -15 -5 0 -6 -4 -7 -10 -4 -6 4 -7 -1 -3 -11 4 -12 3 -15 -5 -10 -11 6
-17 -12 -13 -37 1 -5 -3 -6 -9 -2 -9 6 -14 -7 -11 -27 0 -5 -4 -8 -10 -8 -6 0
-9 9 -6 19 2 10 -2 45 -9 78 -12 49 -13 51 -8 13 4 -35 2 -42 -7 -33 -7 7 -13
36 -15 65 -1 29 -3 59 -3 66 -1 7 -7 12 -14 10 -18 -4 -20 3 -7 37 8 22 8 38
1 60 l-11 30 6 -28z m-43 -87 c4 -17 12 -29 19 -28 8 2 13 -6 12 -20 -1 -17 2
-20 11 -12 9 8 14 6 19 -5 3 -9 2 -13 -4 -10 -5 3 -7 -11 -4 -35 5 -38 -7 -53
-22 -29 -4 8 -9 7 -16 -2 -10 -15 -11 -15 6 39 4 12 4 22 -1 22 -5 0 -9 10
-10 21 -2 25 -10 35 -20 26 -3 -4 -1 -18 5 -32 7 -15 8 -25 2 -25 -6 0 -10 5
-10 12 0 6 -3 8 -6 5 -4 -4 -1 -13 6 -22 7 -9 10 -18 7 -22 -4 -3 -2 -14 3
-24 7 -12 6 -20 -1 -25 -8 -4 -8 -9 -1 -13 6 -3 12 -18 14 -33 2 -15 7 -30 11
-34 12 -12 8 -20 -13 -21 -16 -1 -18 2 -10 22 6 17 5 27 -5 35 -9 8 -14 28
-12 55 1 23 -4 49 -11 58 -9 10 -10 17 -2 22 5 3 7 17 4 31 -5 18 -3 24 7 22
8 -2 13 3 11 12 -10 41 -10 50 -3 45 5 -2 11 -18 14 -35z m-133 -22 c0 -4 -9
-12 -21 -18 -19 -11 -20 -10 -9 9 6 12 8 21 5 21 -4 0 -3 5 1 11 6 11 23 -6
24 -23z m74 -132 c2 -15 8 -31 15 -35 6 -4 9 -16 5 -27 -5 -15 -4 -16 5 -4 8
12 11 12 17 -3 9 -24 0 -31 -24 -18 -14 7 -25 30 -33 66 -7 30 -16 52 -20 49
-5 -3 -6 2 -3 11 6 14 9 15 21 2 8 -7 15 -26 17 -41z m434 42 c-3 -7 -10 -13
-15 -13 -6 0 -15 -3 -19 -7 -4 -5 -17 -8 -28 -8 -16 0 -18 -2 -7 -9 10 -6 5
-11 -18 -16 -20 -4 -36 -15 -41 -28 -4 -12 -22 -35 -40 -52 l-32 -30 13 28 c7
15 17 27 22 27 5 0 7 14 3 33 -3 17 -3 27 2 20 10 -15 75 14 65 30 -3 5 -2 7
4 4 5 -3 22 3 39 14 33 22 58 25 52 7z m-181 -48 c-3 -11 -1 -23 4 -26 5 -3 9
-11 9 -17 0 -7 -4 -6 -10 3 -8 13 -10 12 -10 -3 0 -10 -5 -15 -10 -12 -6 3
-13 -2 -16 -12 -12 -38 -27 -62 -36 -57 -4 3 -8 -2 -8 -10 0 -8 -5 -18 -11
-21 -5 -4 -3 10 7 32 9 21 18 46 21 55 3 10 14 20 24 23 11 4 19 16 19 29 0
21 7 36 18 36 2 0 2 -9 -1 -20z m-157 -1 c0 -5 5 -7 10 -4 6 3 10 -5 10 -19 0
-33 10 -57 21 -50 5 3 7 10 3 15 -3 6 -8 24 -11 42 -4 27 -3 29 10 19 15 -12
22 -82 9 -82 -4 0 -7 -22 -6 -50 1 -40 -2 -48 -13 -39 -25 21 -63 179 -43 179
6 0 10 -5 10 -11z m-140 -46 c34 -24 40 -32 35 -55 -2 -16 0 -28 6 -28 6 0 7
5 4 10 -3 6 -1 10 5 10 7 0 10 -7 6 -15 -6 -18 21 -48 36 -39 6 4 8 2 5 -3 -4
-6 0 -16 8 -23 8 -7 15 -9 15 -4 0 11 20 -18 20 -29 0 -5 -6 -5 -12 -1 -7 4
-5 -2 5 -13 10 -11 19 -30 22 -42 2 -11 7 -26 10 -31 3 -6 1 -10 -4 -10 -6 0
-11 -7 -11 -16 0 -18 -21 6 -48 55 -22 39 -5 35 22 -6 14 -20 26 -33 26 -27 0
6 -9 23 -20 37 -11 14 -20 35 -20 47 0 16 -4 20 -16 16 -8 -3 -13 -2 -10 2 12
20 -15 36 -64 36 -34 1 -55 6 -61 16 -25 43 -28 45 -41 32 -15 -15 -39 -16
-36 -1 2 6 -3 14 -11 17 -9 3 -11 0 -6 -8 6 -9 3 -9 -14 -1 -11 7 -21 13 -21
15 0 5 55 -1 74 -9 14 -6 17 -5 14 6 -3 8 -12 13 -21 11 -25 -4 -30 16 -6 28
13 7 19 8 15 2 -14 -23 18 -23 36 -1 11 13 18 17 15 8 -3 -8 3 -21 14 -27 18
-12 27 -33 12 -31 -5 1 -15 1 -23 0 -13 -1 -13 -3 -1 -10 8 -5 23 -8 34 -5 14
2 18 -1 15 -14 -4 -12 1 -18 13 -19 18 -2 17 18 -4 45 -6 8 -5 12 3 12 14 0 4
14 -11 16 -22 3 -23 5 -11 13 11 7 10 9 -3 14 -9 4 -13 3 -10 -3 3 -6 1 -10
-4 -10 -6 0 -11 7 -11 15 0 9 -7 18 -15 21 -17 7 -20 24 -5 24 5 0 28 -12 50
-27z m384 -35 c-6 -10 -4 -10 7 0 18 17 30 15 23 -3 -4 -9 -19 -15 -35 -15
-29 0 -39 14 -16 23 21 9 28 7 21 -5z m162 -23 c12 -18 11 -27 -11 -67 -13
-25 -22 -47 -20 -50 2 -2 -6 -5 -18 -5 -19 -2 -20 -1 -5 8 23 13 12 38 -13 32
-15 -4 -18 -2 -13 11 3 9 12 17 20 17 28 3 32 4 40 12 10 10 13 47 3 47 -16 0
-21 -22 -8 -31 9 -6 10 -9 2 -9 -6 0 -18 6 -25 13 -7 6 -20 13 -28 15 -8 1 -4
-7 10 -19 14 -11 19 -18 13 -14 -7 3 -23 0 -35 -6 -22 -12 -22 -11 -8 6 14 17
14 17 -5 7 -11 -6 -27 -16 -35 -23 -13 -9 -12 -10 3 -5 24 8 21 -1 -4 -15 -15
-8 -19 -8 -15 0 4 6 2 11 -3 11 -8 0 -7 7 1 19 7 11 15 18 19 16 3 -3 14 4 24
15 10 11 31 20 47 20 19 0 27 4 22 11 -12 20 28 5 42 -16z m-466 0 c7 -9 18
-14 24 -12 6 3 12 -10 13 -29 1 -19 -3 -34 -8 -34 -6 0 -8 4 -4 9 3 6 -4 15
-15 21 -11 6 -20 19 -20 30 0 10 -6 21 -12 23 -8 4 -9 6 -2 6 6 1 17 -6 24
-14z m55 -25 c-3 -5 -2 -10 3 -10 13 0 30 -49 30 -90 0 -33 -1 -32 -14 15 -8
28 -19 57 -24 66 -5 9 -6 20 -3 23 10 10 15 7 8 -4z m109 -43 c-10 -20 -22
-33 -27 -30 -6 4 -8 0 -5 -8 3 -8 -1 -24 -9 -34 -14 -19 -14 -17 -8 15 9 45
24 72 35 65 5 -3 12 4 15 16 4 11 9 18 11 16 3 -2 -3 -21 -12 -40z m396 14
c-8 -5 -19 -10 -25 -11 -5 -1 -17 -7 -25 -13 -13 -10 -13 -10 -1 5 7 10 17 16
21 13 5 -3 11 -1 15 5 3 5 12 10 18 10 7 0 6 -4 -3 -9z m-192 -31 c-7 -11 -16
-20 -21 -20 -4 0 -3 9 3 20 6 11 15 20 20 20 6 0 5 -9 -2 -20z m-441 -6 c-3
-3 -12 -4 -19 -1 -8 3 -5 6 6 6 11 1 17 -2 13 -5z m481 -12 c-10 -2 -18 -8
-18 -13 0 -5 -7 -9 -16 -9 -8 0 -12 -4 -9 -10 3 -5 -3 -10 -15 -10 -12 0 -19
-4 -16 -9 3 -5 -4 -11 -15 -14 l-21 -6 21 23 c12 12 18 26 14 30 -5 4 -3 7 2
6 22 -5 35 1 35 14 0 9 8 12 28 8 19 -4 22 -7 10 -10z m-155 -96 c-10 -13 -21
-22 -25 -19 -4 2 -6 -2 -3 -9 3 -7 -8 -22 -25 -33 -29 -19 -44 -44 -17 -29 6
4 -4 -9 -22 -29 -19 -21 -38 -37 -42 -37 -8 0 -6 27 4 36 3 3 3 20 0 36 -4 20
-1 33 8 39 11 7 11 9 1 9 -7 0 -11 4 -8 9 3 5 15 7 26 4 12 -3 20 0 20 6 0 7
-5 9 -12 5 -6 -4 -8 -3 -5 4 7 10 32 11 42 1 2 -3 -11 -21 -30 -39 -47 -45
-45 -61 3 -19 20 18 37 42 37 52 0 19 23 35 53 36 9 1 8 -6 -5 -23z m153 -28
c-5 9 4 12 40 10 40 -1 44 -3 30 -14 -16 -11 -16 -13 1 -16 14 -3 9 -8 -19
-22 -21 -10 -38 -24 -38 -32 0 -9 -8 -13 -22 -10 -13 2 -36 -3 -51 -11 -23
-12 -26 -17 -16 -29 8 -10 8 -14 0 -14 -6 0 -11 5 -11 11 0 5 -5 7 -10 4 -6
-4 -7 -11 -3 -18 3 -6 -7 -1 -24 11 -17 12 -36 22 -41 22 -6 0 -12 6 -15 13
-2 6 -12 -6 -21 -28 -20 -46 -45 -77 -57 -69 -5 3 -9 0 -9 -7 0 -7 -3 -10 -6
-6 -8 8 -44 -25 -38 -35 3 -4 0 -8 -5 -8 -15 0 -14 15 3 29 7 6 14 23 14 37 0
30 58 84 82 77 11 -4 12 -3 2 4 -10 8 -9 13 4 24 12 9 15 10 10 2 -4 -8 -2
-13 5 -13 6 0 9 8 6 20 -4 14 3 26 23 40 33 24 47 26 30 5 -7 -8 -18 -15 -24
-15 -6 0 -13 -11 -14 -24 -1 -19 3 -23 24 -20 14 1 29 6 32 10 4 4 -1 4 -10 1
-21 -8 -34 11 -19 26 8 8 11 8 11 -1 0 -7 5 -12 12 -12 9 0 9 3 1 11 -19 19 6
49 32 39 13 -5 30 -3 45 5 19 10 28 11 39 2 12 -9 13 -9 7 1z m-339 -60 c0
-16 -3 -28 -8 -28 -5 0 -9 4 -9 9 0 5 -3 24 -7 42 -6 30 -5 32 8 19 8 -8 15
-27 16 -42z m42 30 c-2 -13 -1 -27 2 -33 3 -5 0 -21 -8 -35 -14 -26 -14 -30
-4 83 1 4 4 7 7 7 3 0 4 -10 3 -22z m-293 -23 c-10 -8 -24 -11 -30 -8 -6 4 0
10 14 14 36 10 37 10 16 -6z m754 -23 c7 2 14 -2 16 -7 2 -6 -7 -12 -21 -13
-15 -1 -24 2 -20 8 3 6 -1 10 -10 10 -9 0 -13 5 -10 10 5 8 11 8 20 0 7 -6 18
-9 25 -8z m-612 -32 c7 -12 10 -26 6 -32 -4 -6 -3 -8 4 -4 5 3 12 0 15 -6 2
-7 8 -10 12 -6 5 5 1 16 -8 26 -28 30 -20 33 28 10 62 -30 60 -51 -2 -43 -58
7 -173 6 -188 -2 -5 -4 -7 -3 -3 2 5 5 -1 15 -12 22 -11 8 -18 19 -14 24 4 6
11 6 19 -1 10 -9 24 -6 57 8 56 26 70 26 86 2z m-312 -15 c18 -14 18 -14 -11
-15 -24 0 -27 2 -15 11 10 7 11 9 2 7 -8 -2 -13 -8 -12 -13 1 -5 -7 -12 -17
-16 -28 -12 6 -11 46 1 25 7 39 6 50 -3 10 -8 12 -8 8 -1 -7 12 21 29 31 19 3
-3 -1 -5 -8 -5 -7 0 -11 -3 -8 -6 3 -3 15 0 26 7 16 10 26 10 46 1 27 -12 36
-41 14 -43 -7 0 -20 -2 -29 -4 -9 -1 -23 1 -30 6 -10 6 -6 9 13 9 30 0 45 15
24 23 -8 3 -16 2 -18 -3 -2 -6 -42 -12 -90 -16 -69 -4 -93 -2 -118 11 -38 19
-37 21 13 28 21 3 41 8 44 11 9 9 17 7 39 -9z m644 -15 c3 0 -13 -11 -35 -24
-46 -26 -61 -21 -44 16 10 23 15 25 43 17 17 -5 33 -9 36 -9z m75 -20 c-27
-28 -53 -42 -40 -20 3 5 -6 5 -24 -1 -39 -14 -65 -6 -31 9 19 8 88 32 119 41
3 0 -8 -12 -24 -29z m-300 -30 c3 -5 -1 -10 -9 -10 -8 0 -18 5 -21 10 -3 6 1
10 9 10 8 0 18 -4 21 -10z m-295 -20 c0 -5 -9 -10 -21 -10 -11 0 -17 5 -14 10
3 6 13 10 21 10 8 0 14 -4 14 -10z m430 -15 c-44 -24 -104 -35 -84 -16 20 20
70 41 99 40 29 0 29 0 -15 -24z m130 16 c0 -5 10 -12 23 -15 12 -3 33 -15 47
-27 14 -11 18 -19 10 -16 -8 2 -27 0 -42 -4 -19 -5 -31 -3 -39 7 -6 8 -17 14
-24 14 -7 0 -15 7 -19 15 -7 19 8 19 27 0 8 -8 17 -11 20 -8 12 12 -25 35 -49
30 -13 -2 -27 0 -30 4 -3 5 13 9 35 9 23 0 41 -4 41 -9z m-270 -21 c0 -6 -16
-8 -36 -5 -52 6 -55 15 -6 15 23 0 42 -4 42 -10z m37 -227 c-3 -10 -5 -2 -5
17 0 19 2 27 5 18 2 -10 2 -26 0 -35z"/>
<path d="M810 1236 c5 -13 6 -27 3 -30 -4 -3 -1 -6 5 -6 6 0 13 -10 15 -22 l4
-23 2 23 c1 21 -24 82 -34 82 -2 0 0 -11 5 -24z"/>
<path d="M600 1210 c0 -5 7 -10 16 -10 8 0 12 5 9 10 -3 6 -10 10 -16 10 -5 0
-9 -4 -9 -10z"/>
<path d="M874 889 c-19 -22 -19 -22 3 -10 24 12 39 31 25 31 -5 0 -17 -10 -28
-21z"/>
<path d="M1090 945 c7 -8 17 -15 22 -15 6 0 5 7 -2 15 -7 8 -17 15 -22 15 -6
0 -5 -7 2 -15z"/>
<path d="M1152 943 c-21 -22 -63 -28 -74 -9 -5 9 -18 16 -29 16 -24 0 -16 -18
15 -30 14 -6 16 -9 5 -9 -22 -1 -55 -38 -35 -38 8 0 14 5 13 11 -1 5 3 11 8
11 6 1 18 5 28 9 9 5 28 6 41 4 17 -4 23 -1 19 9 -3 7 -1 13 4 13 5 0 17 6 27
13 14 10 15 14 4 14 -7 0 -19 -6 -26 -14z"/>
<path d="M765 830 c-3 -5 -1 -10 4 -10 6 0 11 5 11 10 0 6 -2 10 -4 10 -3 0
-8 -4 -11 -10z"/>
<path d="M1085 731 c-3 -6 3 -9 14 -8 11 0 17 5 15 9 -7 11 -22 10 -29 -1z"/>
<path d="M581 1538 c13 -21 25 -33 27 -28 2 5 -9 22 -23 37 l-27 28 23 -37z"/>
<path d="M766 1557 c3 -10 9 -15 12 -12 3 3 0 11 -7 18 -10 9 -11 8 -5 -6z"/>
<path d="M647 1554 c-11 -12 -8 -26 4 -18 8 4 9 -1 4 -17 -8 -27 -8 -28 -5
-49 1 -8 6 3 10 25 8 39 0 72 -13 59z"/>
<path d="M913 1513 c1 -27 7 -43 15 -43 15 0 14 5 -3 50 l-14 35 2 -42z"/>
<path d="M955 1520 c-5 -8 -8 -25 -6 -37 1 -13 -3 -23 -10 -23 -7 0 -10 -2 -7
-5 3 -3 -7 -38 -23 -76 -16 -39 -29 -76 -29 -83 1 -15 40 64 40 80 0 7 5 16
12 20 8 5 9 0 6 -14 -7 -26 16 -31 26 -6 9 25 7 41 -4 24 -7 -10 -10 -11 -11
-2 -1 6 -2 18 -3 25 -1 6 4 22 12 34 7 12 12 34 10 50 -2 22 -5 25 -13 13z"/>
<path d="M897 1445 c3 -8 9 -12 14 -9 12 7 11 11 -5 17 -10 4 -13 1 -9 -8z"/>
<path d="M505 1431 c2 -13 0 -32 -6 -42 -7 -14 -4 -21 13 -31 13 -7 28 -13 33
-13 6 -1 9 -7 7 -15 -3 -13 -1 -13 10 -1 10 11 10 14 0 18 -6 3 -9 10 -6 15 4
6 2 8 -4 4 -12 -7 -22 6 -39 54 -7 19 -11 24 -8 11z"/>
<path d="M541 1415 c0 -11 8 -28 19 -38 11 -9 20 -13 20 -7 0 5 -6 13 -14 17
-8 4 -16 17 -19 28 -5 20 -5 20 -6 0z"/>
<path d="M883 1408 c-5 -7 -6 -24 -2 -38 7 -26 8 -25 14 23 4 30 2 33 -12 15z"/>
<path d="M1220 1345 c-7 -9 -8 -15 -2 -15 5 0 12 7 16 15 3 8 4 15 2 15 -2 0
-9 -7 -16 -15z"/>
<path d="M356 1270 c4 -14 7 -25 8 -25 0 -1 20 -13 44 -29 33 -20 47 -25 57
-16 14 11 9 53 -6 45 -4 -3 -6 -12 -2 -20 10 -27 -25 -16 -53 18 -15 17 -25
24 -21 15 10 -27 0 -21 -18 10 -15 26 -16 26 -9 2z"/>
<path d="M300 1221 c0 -7 21 -34 47 -60 26 -25 46 -49 45 -53 -1 -4 4 -5 12
-2 18 7 32 -16 16 -26 -15 -9 -70 10 -70 25 0 5 -4 3 -9 -5 -7 -10 -1 -20 24
-37 40 -27 45 -28 45 -9 0 22 27 27 57 11 15 -8 22 -15 16 -15 -7 0 -13 -5
-13 -11 0 -8 4 -8 14 0 11 9 22 7 49 -9 27 -16 39 -18 58 -10 19 8 20 9 4 8
-11 -2 -26 1 -32 5 -7 5 -13 6 -13 2 0 -3 -10 0 -22 7 l-23 12 25 7 c24 7 24
7 3 9 -22 2 -35 5 -50 10 -5 1 -12 2 -16 1 -5 -1 -5 4 -1 10 5 9 2 10 -10 6
-9 -4 -15 -3 -12 2 3 5 -7 14 -23 19 -22 8 -34 23 -50 64 -12 29 -19 41 -16
26 8 -40 -12 -44 -35 -6 -11 18 -20 27 -20 19z m70 -61 c0 -5 -2 -10 -4 -10
-3 0 -8 5 -11 10 -3 6 -1 10 4 10 6 0 11 -4 11 -10z m21 -97 c13 -16 12 -17
-3 -4 -10 7 -18 15 -18 17 0 8 8 3 21 -13z"/>
<path d="M1300 1220 c-9 -6 -10 -10 -3 -10 6 0 15 5 18 10 8 12 4 12 -15 0z"/>
<path d="M396 1165 c4 -8 7 -15 9 -15 2 0 5 7 9 15 3 9 0 15 -9 15 -9 0 -12
-6 -9 -15z"/>
<path d="M449 1158 c-9 -32 -6 -40 17 -37 4 0 10 -4 13 -9 9 -14 55 -27 47
-13 -4 6 -14 11 -22 11 -8 0 -14 4 -14 9 0 5 -9 11 -21 14 -12 3 -18 10 -14
16 3 6 4 11 1 11 -3 0 -6 -1 -7 -2z"/>
<path d="M310 1121 c0 -5 5 -13 10 -16 6 -3 10 -2 10 4 0 5 -4 13 -10 16 -5 3
-10 2 -10 -4z"/>
<path d="M1286 1103 l-18 -25 32 17 c18 9 41 15 51 12 11 -3 16 -1 13 5 -4 5
-17 8 -30 5 -13 -2 -25 -1 -26 4 -2 4 -11 -4 -22 -18z"/>
<path d="M950 1099 c0 -5 5 -7 10 -4 6 3 10 8 10 11 0 2 -4 4 -10 4 -5 0 -10
-5 -10 -11z"/>
<path d="M695 1090 c3 -5 8 -10 11 -10 2 0 4 5 4 10 0 6 -5 10 -11 10 -5 0 -7
-4 -4 -10z"/>
<path d="M1325 1090 c-6 -16 -47 -21 -61 -7 -11 11 -26 8 -19 -4 4 -6 1 -10
-6 -8 -33 4 -41 0 -26 -15 16 -16 32 -16 64 2 12 7 24 8 27 3 8 -13 -4 -20
-22 -14 -10 4 -13 2 -8 -5 12 -20 36 -13 46 13 5 14 12 25 16 25 3 0 3 -8 -1
-17 -5 -14 -3 -15 5 -6 9 8 9 16 2 30 -9 15 -12 16 -17 3z"/>
<path d="M995 1070 c-13 -6 -15 -9 -5 -9 8 0 22 4 30 9 18 12 2 12 -25 0z"/>
<path d="M680 1055 c7 -9 27 -25 44 -37 l31 -21 -34 36 c-34 36 -67 53 -41 22z"/>
<path d="M428 1053 c7 -3 16 -2 19 1 4 3 -2 6 -13 5 -11 0 -14 -3 -6 -6z"/>
<path d="M665 990 c-3 -6 1 -7 9 -4 18 7 21 14 7 14 -6 0 -13 -4 -16 -10z"/>
<path d="M517 983 c-3 -5 24 -17 59 -29 35 -11 64 -17 64 -12 0 4 -5 8 -11 8
-6 0 -17 7 -25 15 -8 8 -21 12 -28 9 -8 -3 -17 -1 -21 5 -7 13 -32 15 -38 4z"/>
<path d="M320 966 c0 -2 9 -6 20 -9 11 -3 18 -1 14 4 -5 9 -34 13 -34 5z"/>
<path d="M1355 960 c-3 -5 -1 -10 4 -10 6 0 11 5 11 10 0 6 -2 10 -4 10 -3 0
-8 -4 -11 -10z"/>
<path d="M1385 960 c-3 -5 -2 -10 4 -10 5 0 13 5 16 10 3 6 2 10 -4 10 -5 0
-13 -4 -16 -10z"/>
<path d="M1405 915 c-27 -25 -46 -45 -42 -45 5 0 15 7 24 15 8 8 20 12 26 8 7
-3 9 -2 4 2 -4 5 5 21 20 37 39 41 25 34 -32 -17z"/>
<path d="M701 928 c13 -10 29 -22 36 -28 15 -13 23 -13 23 -1 0 5 -10 13 -21
16 -17 6 -19 9 -8 16 8 5 10 9 4 10 -5 0 -21 2 -34 3 l-24 3 24 -19z"/>
<path d="M1185 890 c3 -5 13 -10 21 -10 8 0 12 5 9 10 -3 6 -13 10 -21 10 -8
0 -12 -4 -9 -10z"/>
<path d="M1238 863 c7 -3 16 -2 19 1 4 3 -2 6 -13 5 -11 0 -14 -3 -6 -6z"/>
<path d="M659 718 c-1 -7 -2 -19 -3 -26 0 -7 -7 -16 -14 -21 -11 -6 -10 -10 4
-15 16 -6 16 -9 4 -17 -13 -9 -13 -10 0 -6 8 2 14 9 13 15 -2 6 4 9 12 6 8 -4
12 -11 8 -17 -4 -6 -1 -7 6 -3 7 5 10 10 7 13 -5 6 37 43 48 43 12 0 6 -28 -9
-40 -16 -13 -10 -35 6 -24 5 3 7 10 4 15 -4 5 -1 9 4 9 6 0 11 -6 11 -14 0
-18 -25 -38 -35 -28 -5 4 -5 1 -1 -6 6 -11 13 -9 32 9 13 12 22 25 19 27 -3 3
2 13 11 23 10 11 12 19 4 24 -5 3 -7 12 -4 18 5 8 3 8 -7 0 -19 -18 -32 -16
-25 3 5 14 4 15 -9 4 -13 -10 -19 -10 -33 4 -22 19 -52 21 -53 4z m52 -15 c13
-15 11 -16 -11 -10 -23 5 -23 5 -7 -7 17 -13 16 -14 -2 -19 -26 -6 -29 -2 -23
28 5 29 24 32 43 8z m69 -38 c-7 -9 -15 -13 -17 -11 -7 7 7 26 19 26 6 0 6 -6
-2 -15z"/>
<path d="M1000 725 c0 -5 5 -17 10 -25 5 -8 10 -10 10 -5 0 6 -5 17 -10 25 -5
8 -10 11 -10 5z"/>
<path d="M1041 683 c7 -12 15 -20 18 -17 3 2 -3 12 -13 22 -17 16 -18 16 -5
-5z"/>
<path d="M1145 663 c22 -15 48 -38 59 -51 10 -12 21 -21 24 -17 3 3 -3 12 -14
20 -18 14 -18 14 9 15 16 0 26 4 22 9 -3 5 -19 9 -35 9 -18 -1 -40 8 -53 20
-13 12 -30 22 -37 22 -8 0 3 -12 25 -27z"/>
<path d="M986 647 c3 -10 9 -15 12 -12 3 3 0 11 -7 18 -10 9 -11 8 -5 -6z"/>
<path d="M874 553 c7 -94 11 -112 20 -102 9 9 -7 199 -17 199 -6 0 -7 -35 -3
-97z"/>
<path d="M943 554 c6 -91 11 -113 21 -103 9 9 -7 199 -17 199 -6 0 -8 -34 -4
-96z"/>
<path d="M1270 641 c0 -5 9 -7 20 -4 11 3 20 7 20 9 0 2 -9 4 -20 4 -11 0 -20
-4 -20 -9z"/>
<path d="M780 608 c-12 -22 -12 -22 6 -6 10 10 15 20 12 24 -4 3 -12 -5 -18
-18z"/>
<path d="M900 621 c0 -5 7 -12 16 -15 14 -5 15 -4 4 9 -14 17 -20 19 -20 6z"/>
<path d="M1090 613 c0 -5 15 -9 33 -10 26 -1 28 0 12 7 -26 11 -45 12 -45 3z"/>
<path d="M579 589 c-25 -25 -21 -38 22 -67 39 -27 44 -46 12 -50 -16 -2 -23 2
-23 12 0 9 -5 16 -11 16 -6 0 -9 -10 -7 -22 2 -19 9 -23 37 -23 64 0 68 55 6
81 -32 13 -34 17 -24 35 9 17 17 20 46 16 29 -5 33 -4 23 8 -18 21 -57 18 -81
-6z"/>
<path d="M694 558 c3 -29 6 -65 6 -80 0 -16 5 -28 10 -28 6 0 10 7 10 16 0 10
5 14 15 10 8 -3 22 -9 30 -12 8 -3 15 -2 15 4 0 6 -14 15 -32 21 l-32 11 35
30 c23 20 29 29 18 30 -9 0 -22 -7 -29 -15 -21 -25 -30 -17 -30 25 0 23 -5 40
-11 40 -8 0 -10 -16 -5 -52z"/>
<path d="M396 588 c3 -5 10 -6 15 -3 13 9 11 12 -6 12 -8 0 -12 -4 -9 -9z"/>
<path d="M1028 578 c6 -6 18 -8 28 -6 14 3 12 5 -9 10 -19 3 -25 2 -19 -4z"/>
<path d="M900 566 c0 -2 7 -9 15 -16 13 -11 14 -10 9 4 -5 14 -24 23 -24 12z"/>
<path d="M1007 542 c-24 -26 -22 -31 19 -48 34 -14 35 -17 21 -31 -13 -13 -19
-14 -31 -3 -13 10 -16 10 -16 -4 0 -13 7 -17 33 -14 25 2 33 8 35 26 3 18 -3
26 -27 35 -39 14 -34 32 7 32 37 0 37 19 1 23 -15 2 -32 -5 -42 -16z"/>
<path d="M1095 530 c-3 -5 1 -10 9 -10 9 0 16 5 16 10 0 6 -4 10 -9 10 -6 0
-13 -4 -16 -10z"/>
<path d="M1100 495 c0 -7 11 -12 25 -12 28 0 25 12 -5 20 -12 3 -20 0 -20 -8z"/>
<path d="M1235 490 c-3 -5 -1 -10 4 -10 6 0 11 5 11 10 0 6 -2 10 -4 10 -3 0
-8 -4 -11 -10z"/>
<path d="M476 442 c-3 -5 1 -9 9 -9 8 0 15 4 15 9 0 4 -4 8 -9 8 -6 0 -12 -4
-15 -8z"/>
</g>
</svg>
